<mxfile host="app.diagrams.net" modified="2024-05-29T12:44:08.710Z" agent="Mozilla/5.0 (Windows NT 10.0; Win64; x64) AppleWebKit/537.36 (KHTML, like Gecko) Chrome/122.0.0.0 YaBrowser/24.4.0.0 Safari/537.36" etag="0vn8-vdlv0MzNjmJk_5Q" version="24.4.9" type="device">
  <diagram name="Страница — 1" id="f7plNYMr7s8fHwuThGvP">
    <mxGraphModel dx="1242" dy="614" grid="1" gridSize="10" guides="1" tooltips="1" connect="1" arrows="1" fold="1" page="1" pageScale="1" pageWidth="827" pageHeight="1169" math="0" shadow="0">
      <root>
        <mxCell id="0" />
        <mxCell id="1" parent="0" />
        <mxCell id="BWDktN0fkyZqR2tOLouI-9" value="" style="edgeStyle=orthogonalEdgeStyle;rounded=0;orthogonalLoop=1;jettySize=auto;html=1;" parent="1" source="BWDktN0fkyZqR2tOLouI-1" target="BWDktN0fkyZqR2tOLouI-8" edge="1">
          <mxGeometry relative="1" as="geometry" />
        </mxCell>
        <mxCell id="BWDktN0fkyZqR2tOLouI-1" value="Начало" style="rounded=1;whiteSpace=wrap;html=1;" parent="1" vertex="1">
          <mxGeometry x="330" y="130" width="120" height="60" as="geometry" />
        </mxCell>
        <mxCell id="BWDktN0fkyZqR2tOLouI-11" value="" style="edgeStyle=orthogonalEdgeStyle;rounded=0;orthogonalLoop=1;jettySize=auto;html=1;" parent="1" source="BWDktN0fkyZqR2tOLouI-8" target="BWDktN0fkyZqR2tOLouI-10" edge="1">
          <mxGeometry relative="1" as="geometry" />
        </mxCell>
        <mxCell id="BWDktN0fkyZqR2tOLouI-8" value="Составление заявки" style="whiteSpace=wrap;html=1;rounded=1;arcSize=0;" parent="1" vertex="1">
          <mxGeometry x="330" y="230" width="120" height="60" as="geometry" />
        </mxCell>
        <mxCell id="BWDktN0fkyZqR2tOLouI-13" value="" style="edgeStyle=orthogonalEdgeStyle;rounded=0;orthogonalLoop=1;jettySize=auto;html=1;" parent="1" source="BWDktN0fkyZqR2tOLouI-10" target="BWDktN0fkyZqR2tOLouI-12" edge="1">
          <mxGeometry relative="1" as="geometry" />
        </mxCell>
        <mxCell id="BWDktN0fkyZqR2tOLouI-10" value="Отправка заявки" style="whiteSpace=wrap;html=1;rounded=1;arcSize=0;" parent="1" vertex="1">
          <mxGeometry x="330" y="330" width="120" height="60" as="geometry" />
        </mxCell>
        <mxCell id="BWDktN0fkyZqR2tOLouI-15" value="" style="edgeStyle=orthogonalEdgeStyle;rounded=0;orthogonalLoop=1;jettySize=auto;html=1;" parent="1" source="BWDktN0fkyZqR2tOLouI-12" target="BWDktN0fkyZqR2tOLouI-14" edge="1">
          <mxGeometry relative="1" as="geometry" />
        </mxCell>
        <mxCell id="BWDktN0fkyZqR2tOLouI-12" value="Обработка заявки" style="whiteSpace=wrap;html=1;rounded=1;arcSize=0;" parent="1" vertex="1">
          <mxGeometry x="330" y="430" width="120" height="60" as="geometry" />
        </mxCell>
        <mxCell id="BWDktN0fkyZqR2tOLouI-16" style="edgeStyle=orthogonalEdgeStyle;rounded=0;orthogonalLoop=1;jettySize=auto;html=1;" parent="1" source="BWDktN0fkyZqR2tOLouI-14" edge="1">
          <mxGeometry relative="1" as="geometry">
            <Array as="points">
              <mxPoint x="580" y="570" />
              <mxPoint x="580" y="210" />
            </Array>
            <mxPoint x="390" y="210" as="targetPoint" />
          </mxGeometry>
        </mxCell>
        <mxCell id="Ml0fEcIxP8ulIwaBk_hp-1" style="edgeStyle=orthogonalEdgeStyle;rounded=0;orthogonalLoop=1;jettySize=auto;html=1;" edge="1" parent="1" source="BWDktN0fkyZqR2tOLouI-14" target="BWDktN0fkyZqR2tOLouI-18">
          <mxGeometry relative="1" as="geometry" />
        </mxCell>
        <mxCell id="BWDktN0fkyZqR2tOLouI-14" value="Заявка выполняет все требования?" style="rhombus;whiteSpace=wrap;html=1;rounded=1;arcSize=0;" parent="1" vertex="1">
          <mxGeometry x="290" y="530" width="200" height="80" as="geometry" />
        </mxCell>
        <mxCell id="BWDktN0fkyZqR2tOLouI-17" value="Нет" style="text;html=1;align=center;verticalAlign=middle;resizable=0;points=[];autosize=1;strokeColor=none;fillColor=none;" parent="1" vertex="1">
          <mxGeometry x="510" y="540" width="40" height="30" as="geometry" />
        </mxCell>
        <mxCell id="BWDktN0fkyZqR2tOLouI-21" value="" style="edgeStyle=orthogonalEdgeStyle;rounded=0;orthogonalLoop=1;jettySize=auto;html=1;" parent="1" source="BWDktN0fkyZqR2tOLouI-18" target="BWDktN0fkyZqR2tOLouI-20" edge="1">
          <mxGeometry relative="1" as="geometry" />
        </mxCell>
        <mxCell id="BWDktN0fkyZqR2tOLouI-18" value="Регистрация заявки&amp;nbsp;" style="whiteSpace=wrap;html=1;rounded=1;arcSize=0;" parent="1" vertex="1">
          <mxGeometry x="325" y="670" width="130" height="60" as="geometry" />
        </mxCell>
        <mxCell id="BWDktN0fkyZqR2tOLouI-23" style="edgeStyle=orthogonalEdgeStyle;rounded=0;orthogonalLoop=1;jettySize=auto;html=1;" parent="1" source="BWDktN0fkyZqR2tOLouI-20" target="BWDktN0fkyZqR2tOLouI-22" edge="1">
          <mxGeometry relative="1" as="geometry" />
        </mxCell>
        <mxCell id="BWDktN0fkyZqR2tOLouI-20" value="Заявка зарегистрирована в системе" style="whiteSpace=wrap;html=1;rounded=1;arcSize=0;" parent="1" vertex="1">
          <mxGeometry x="325" y="780" width="130" height="60" as="geometry" />
        </mxCell>
        <mxCell id="BWDktN0fkyZqR2tOLouI-22" value="Конец" style="rounded=1;whiteSpace=wrap;html=1;" parent="1" vertex="1">
          <mxGeometry x="330" y="890" width="120" height="60" as="geometry" />
        </mxCell>
        <mxCell id="Ml0fEcIxP8ulIwaBk_hp-2" value="Да" style="text;html=1;align=center;verticalAlign=middle;resizable=0;points=[];autosize=1;strokeColor=none;fillColor=none;" vertex="1" parent="1">
          <mxGeometry x="394" y="620" width="40" height="30" as="geometry" />
        </mxCell>
      </root>
    </mxGraphModel>
  </diagram>
</mxfile>
